<svg width="1135" height="1135" viewBox="0 0 1135 1135" fill="none" xmlns="http://www.w3.org/2000/svg">
<rect width="1135" height="1135" fill="#181617"/>
<path d="M126.578 502.508H167.594C174.365 502.508 180.712 503.322 186.637 504.949C192.561 506.577 197.704 508.986 202.066 512.176C206.493 515.301 209.944 519.174 212.418 523.797C214.957 528.354 216.227 533.595 216.227 539.52C216.227 545.379 214.99 550.49 212.516 554.852C210.107 559.214 206.884 562.827 202.848 565.691C198.876 568.556 194.352 570.704 189.273 572.137C184.195 573.504 179.02 574.188 173.746 574.188C171.467 574.188 169.091 574.155 166.617 574.09C164.143 573.96 161.767 573.797 159.488 573.602C157.21 573.406 155.094 573.178 153.141 572.918C151.188 572.658 149.592 572.397 148.355 572.137V632H126.578V502.508ZM148.355 564.812C150.829 565.659 153.466 566.375 156.266 566.961C159.065 567.482 161.93 567.742 164.859 567.742C169.547 567.742 173.648 567.059 177.164 565.691C180.68 564.259 183.609 562.339 185.953 559.93C188.297 557.456 190.022 554.591 191.129 551.336C192.301 548.016 192.887 544.5 192.887 540.789C192.887 536.427 192.138 532.488 190.641 528.973C189.143 525.457 187.06 522.462 184.391 519.988C181.786 517.449 178.694 515.496 175.113 514.129C171.598 512.762 167.822 512.078 163.785 512.078H148.355V564.812ZM242.203 502.508H287.125C294.872 502.508 301.676 503.354 307.535 505.047C313.395 506.674 318.277 508.986 322.184 511.98C326.09 514.975 329.02 518.556 330.973 522.723C332.991 526.824 334 531.316 334 536.199C334 540.236 333.219 544.012 331.656 547.527C330.159 551.043 328.01 554.233 325.211 557.098C322.477 559.897 319.156 562.339 315.25 564.422C311.344 566.44 307.047 568.035 302.359 569.207L349.527 632H324.234L279.215 571.16H263.98V632H242.203V502.508ZM263.98 564.617H276.578C281.461 564.617 285.953 563.966 290.055 562.664C294.221 561.362 297.802 559.539 300.797 557.195C303.857 554.786 306.233 551.889 307.926 548.504C309.618 545.118 310.465 541.31 310.465 537.078C310.465 533.172 309.781 529.591 308.414 526.336C307.112 523.081 305.224 520.314 302.75 518.035C300.341 515.691 297.444 513.868 294.059 512.566C290.738 511.264 287.092 510.613 283.121 510.613H263.98V564.617ZM457.242 502.508V510.906H388.98V557.195H434.684V565.594H388.98V623.602H457.242V632H367.203V502.508H457.242ZM482.828 502.508H505.094L555.484 601.824H556.559L605.973 502.508H627.848V632H605.973V525.848H605.289L552.164 632H547.672L493.961 526.727H492.496V632H482.828V502.508ZM663.102 502.508H684.879V632H663.102V502.508ZM718.18 502.508H739.957V586.59C739.957 592.124 740.901 597.332 742.789 602.215C744.677 607.033 747.379 611.264 750.895 614.91C754.41 618.556 758.642 621.453 763.59 623.602C768.603 625.685 774.169 626.727 780.289 626.727C786.474 626.727 792.04 625.685 796.988 623.602C801.936 621.453 806.135 618.556 809.586 614.91C813.102 611.264 815.771 607.033 817.594 602.215C819.482 597.332 820.426 592.124 820.426 586.59V502.508H829.996V586.59C829.996 593.23 828.922 599.48 826.773 605.34C824.625 611.199 821.24 616.342 816.617 620.77C812.06 625.132 806.201 628.615 799.039 631.219C791.878 633.758 783.284 635.027 773.258 635.027C764.339 635.027 756.428 633.758 749.527 631.219C742.691 628.615 736.93 625.099 732.242 620.672C727.62 616.245 724.104 611.069 721.695 605.145C719.352 599.155 718.18 592.775 718.18 586.004V502.508ZM863.102 502.508H885.367L935.758 601.824H936.832L986.246 502.508H1008.12V632H986.246V525.848H985.562L932.438 632H927.945L874.234 526.727H872.77V632H863.102V502.508Z" fill="white"/>
<path d="M325.783 663.182V667.307H309.643V700H305.002V663.182H325.783ZM351.52 700L347.085 688.604H332.492L328.109 700H323.416L337.803 663.027H341.98L356.316 700H351.52ZM341.568 673.34C341.465 673.065 341.293 672.567 341.052 671.845C340.811 671.123 340.571 670.384 340.33 669.627C340.124 668.837 339.952 668.235 339.814 667.823C339.643 668.51 339.453 669.215 339.247 669.937C339.075 670.624 338.886 671.26 338.68 671.845C338.508 672.429 338.353 672.928 338.216 673.34L334.039 684.479H345.693L341.568 673.34ZM371.098 663.182C375.911 663.182 379.418 664.127 381.618 666.018C383.818 667.909 384.918 670.573 384.918 674.011C384.918 675.523 384.66 676.984 384.144 678.394C383.663 679.769 382.855 681.006 381.721 682.107C380.586 683.207 379.074 684.083 377.183 684.736C375.292 685.355 372.972 685.665 370.222 685.665H365.993V700H361.352V663.182H371.098ZM370.686 667.152H365.993V681.694H369.706C372.044 681.694 373.986 681.453 375.533 680.972C377.08 680.456 378.232 679.649 378.988 678.548C379.744 677.448 380.122 676.004 380.122 674.217C380.122 671.845 379.366 670.074 377.853 668.906C376.341 667.737 373.952 667.152 370.686 667.152ZM413.107 700L408.673 688.604H394.079L389.696 700H385.004L399.391 663.027H403.568L417.903 700H413.107ZM403.155 673.34C403.052 673.065 402.88 672.567 402.639 671.845C402.399 671.123 402.158 670.384 401.918 669.627C401.711 668.837 401.539 668.235 401.402 667.823C401.23 668.51 401.041 669.215 400.835 669.937C400.663 670.624 400.474 671.26 400.267 671.845C400.095 672.429 399.941 672.928 399.803 673.34L395.626 684.479H407.28L403.155 673.34ZM451.095 700H446.454V682.828H427.581V700H422.94V663.182H427.581V678.755H446.454V663.182H451.095V700ZM472.815 700H468.174V667.255H456.675V663.182H484.263V667.255H472.815V700ZM489.866 663.182H494.198V683.396C494.198 684.255 494.181 685.2 494.146 686.232C494.146 687.229 494.129 688.226 494.095 689.223C494.06 690.22 494.009 691.113 493.94 691.904C493.906 692.66 493.871 693.245 493.837 693.657H494.043L514.309 663.182H519.465V700H515.134V679.992C515.134 679.064 515.151 678.067 515.185 677.001C515.22 675.901 515.254 674.853 515.288 673.856C515.357 672.825 515.409 671.914 515.443 671.123C515.477 670.332 515.512 669.748 515.546 669.37H515.34L495.023 700H489.866V663.182ZM540.483 684.736L530.943 700H525.528L535.842 683.911C534.535 683.464 533.298 682.846 532.129 682.055C530.994 681.264 530.066 680.181 529.344 678.806C528.622 677.431 528.261 675.661 528.261 673.495C528.261 670.16 529.413 667.616 531.716 665.863C534.02 664.075 537.457 663.182 542.03 663.182H552.343V700H547.702V684.736H540.483ZM542.133 667.152C540.173 667.152 538.523 667.376 537.182 667.823C535.842 668.27 534.81 668.974 534.088 669.937C533.401 670.899 533.057 672.154 533.057 673.701C533.057 675.97 533.813 677.723 535.326 678.961C536.839 680.199 539.176 680.817 542.339 680.817H547.702V667.152H542.133ZM604.303 700H598.734L582.078 681.333V700H577.437V663.182H582.078V681.024L598.321 663.182H603.581L587.596 681.075L604.303 700ZM632.415 700L627.98 688.604H613.387L609.004 700H604.311L618.698 663.027H622.875L637.211 700H632.415ZM622.463 673.34C622.36 673.065 622.188 672.567 621.947 671.845C621.707 671.123 621.466 670.384 621.225 669.627C621.019 668.837 620.847 668.235 620.71 667.823C620.538 668.51 620.349 669.215 620.142 669.937C619.97 670.624 619.781 671.26 619.575 671.845C619.403 672.429 619.249 672.928 619.111 673.34L614.934 684.479H626.588L622.463 673.34ZM665.668 700H661.028V684.891C659.034 685.579 657.16 686.146 655.407 686.593C653.688 687.005 651.763 687.212 649.631 687.212C646.194 687.212 643.529 686.421 641.639 684.84C639.748 683.224 638.802 680.903 638.802 677.878V663.182H643.443V677.208C643.443 679.202 643.959 680.697 644.99 681.694C646.056 682.657 647.758 683.138 650.095 683.138C652.124 683.138 653.946 682.949 655.561 682.571C657.177 682.192 658.999 681.677 661.028 681.024V663.182H665.668V700ZM696.26 700H675.685V663.182H696.26V667.255H680.326V678.755H695.332V682.777H680.326V695.926H696.26V700ZM720.118 666.74C718.158 666.74 716.388 667.084 714.806 667.771C713.225 668.424 711.884 669.404 710.784 670.71C709.684 671.982 708.842 673.547 708.257 675.403C707.673 677.225 707.381 679.288 707.381 681.591C707.381 684.616 707.845 687.246 708.773 689.48C709.736 691.715 711.145 693.434 713.001 694.637C714.892 695.84 717.247 696.442 720.066 696.442C721.682 696.442 723.212 696.304 724.655 696.029C726.099 695.754 727.509 695.411 728.884 694.998V699.02C727.509 699.536 726.082 699.914 724.604 700.155C723.16 700.395 721.424 700.516 719.396 700.516C715.649 700.516 712.52 699.742 710.011 698.195C707.501 696.648 705.61 694.448 704.338 691.595C703.101 688.741 702.482 685.39 702.482 681.539C702.482 678.755 702.86 676.211 703.616 673.907C704.407 671.604 705.542 669.61 707.02 667.926C708.532 666.241 710.389 664.952 712.589 664.058C714.789 663.13 717.316 662.666 720.169 662.666C722.06 662.666 723.882 662.855 725.635 663.233C727.388 663.611 728.953 664.144 730.328 664.832L728.471 668.751C727.337 668.235 726.065 667.771 724.655 667.359C723.28 666.946 721.768 666.74 720.118 666.74ZM748.574 700H743.933V667.255H732.434V663.182H760.021V667.255H748.574V700ZM776.093 663.182C779.152 663.182 781.714 663.474 783.776 664.058C785.873 664.643 787.437 665.605 788.469 666.946C789.534 668.287 790.067 670.074 790.067 672.309C790.067 673.753 789.792 675.042 789.242 676.176C788.727 677.276 787.936 678.205 786.87 678.961C785.839 679.683 784.567 680.181 783.054 680.456V680.714C784.601 680.955 785.994 681.402 787.231 682.055C788.503 682.708 789.5 683.636 790.222 684.84C790.944 686.043 791.305 687.607 791.305 689.532C791.305 691.767 790.789 693.675 789.758 695.256C788.727 696.803 787.248 697.989 785.323 698.814C783.432 699.605 781.164 700 778.516 700H765.573V663.182H776.093ZM777.021 678.858C780.184 678.858 782.35 678.359 783.518 677.362C784.687 676.331 785.272 674.818 785.272 672.825C785.272 670.796 784.55 669.352 783.106 668.493C781.696 667.599 779.427 667.152 776.299 667.152H770.214V678.858H777.021ZM770.214 682.725V696.081H777.64C780.906 696.081 783.175 695.445 784.447 694.173C785.719 692.901 786.355 691.234 786.355 689.171C786.355 687.865 786.062 686.73 785.478 685.768C784.928 684.805 783.982 684.066 782.642 683.55C781.335 683 779.548 682.725 777.279 682.725H770.214ZM831.237 681.539C831.237 684.393 830.876 686.988 830.154 689.326C829.432 691.629 828.35 693.623 826.906 695.307C825.496 696.992 823.726 698.281 821.594 699.175C819.497 700.069 817.057 700.516 814.272 700.516C811.384 700.516 808.875 700.069 806.743 699.175C804.612 698.247 802.841 696.958 801.432 695.307C800.023 693.623 798.974 691.612 798.286 689.274C797.599 686.937 797.255 684.341 797.255 681.488C797.255 677.706 797.874 674.406 799.112 671.587C800.349 668.768 802.223 666.568 804.732 664.987C807.276 663.405 810.473 662.614 814.324 662.614C818.002 662.614 821.096 663.405 823.605 664.987C826.115 666.533 828.006 668.734 829.278 671.587C830.584 674.406 831.237 677.723 831.237 681.539ZM802.154 681.539C802.154 684.633 802.584 687.298 803.443 689.532C804.303 691.767 805.626 693.485 807.414 694.689C809.236 695.892 811.522 696.493 814.272 696.493C817.057 696.493 819.325 695.892 821.079 694.689C822.866 693.485 824.19 691.767 825.049 689.532C825.909 687.298 826.339 684.633 826.339 681.539C826.339 676.898 825.376 673.271 823.451 670.659C821.526 668.012 818.483 666.688 814.324 666.688C811.539 666.688 809.236 667.29 807.414 668.493C805.626 669.662 804.303 671.364 803.443 673.598C802.584 675.798 802.154 678.445 802.154 681.539Z" fill="white"/>
<path d="M692.589 447.208L713 436.882L697.641 475.728C679.667 481.424 670.19 481.424 651.291 475.728L638 436.882L656.987 447.208L654.139 464.091H665.451L670.19 455.731L662.684 442.127L675.025 420L687.51 442.127L679.667 455.731L684.044 464.091H695.026L692.589 447.208Z" fill="#39B447"/>
</svg>
